<svg xmlns="http://www.w3.org/2000/svg" xmlns:xlink="http://www.w3.org/1999/xlink">

<symbol id="github" fill-rule="evenodd" clip-rule="evenodd" stroke-linejoin="round" stroke-miterlimit="1.414" viewBox="0 0 16 16"><path d="M8 0C3.58 0 0 3.582 0 8c0 3.535 2.292 6.533 5.47 7.59.4.075.547-.172.547-.385 0-.19-.007-.693-.01-1.36-2.226.483-2.695-1.073-2.695-1.073-.364-.924-.89-1.17-.89-1.17-.725-.496.056-.486.056-.486.803.056 1.225.824 1.225.824.714 1.223 1.873.87 2.33.665.072-.517.278-.87.507-1.07-1.777-.2-3.644-.888-3.644-3.953 0-.873.31-1.587.823-2.147-.09-.202-.36-1.015.07-2.117 0 0 .67-.215 2.2.82.64-.178 1.32-.266 2-.27.68.004 1.36.092 2 .27 1.52-1.035 2.19-.82 2.19-.82.43 1.102.16 1.915.08 2.117.51.56.82 1.274.82 2.147 0 3.073-1.87 3.75-3.65 3.947.28.24.54.73.54 1.48 0 1.07-.01 1.93-.01 2.19 0 .21.14.46.55.38C13.71 14.53 16 11.53 16 8c0-4.418-3.582-8-8-8"/>
</symbol>
<symbol id="google_scholar" fill-rule="evenodd" clip-rule="evenodd" stroke-linejoin="round" stroke-miterlimit="1.414" viewBox="0 0 16 16"><?xml version="1.0" encoding="UTF-8" standalone="no"?>
<svg
   xmlns:dc="http://purl.org/dc/elements/1.1/"
   xmlns:cc="http://creativecommons.org/ns#"
   xmlns:rdf="http://www.w3.org/1999/02/22-rdf-syntax-ns#"
   xmlns:svg="http://www.w3.org/2000/svg"
   xmlns="http://www.w3.org/2000/svg"
   xmlns:sodipodi="http://sodipodi.sourceforge.net/DTD/sodipodi-0.dtd"
   xmlns:inkscape="http://www.inkscape.org/namespaces/inkscape"
   width="384"
   height="512"
   viewBox="0 0 384 512"
   version="1.1"
   id="svg8"
   inkscape:version="1.0 (1.0+r73+1)"
   sodipodi:docname="google-scholar.svg">
  <title
     id="title833">Google Scholar</title>
  <defs
     id="defs2" />
  <sodipodi:namedview
     id="base"
     pagecolor="#ffffff"
     bordercolor="#666666"
     borderopacity="1.0"
     inkscape:pageopacity="0.0"
     inkscape:pageshadow="2"
     inkscape:zoom="0.75"
     inkscape:cx="192"
     inkscape:cy="256"
     inkscape:document-units="px"
     inkscape:current-layer="layer6"
     inkscape:document-rotation="0"
     showgrid="true"
     units="px"
     showguides="true"
     inkscape:guide-bbox="true"
     inkscape:window-width="1315"
     inkscape:window-height="713"
     inkscape:window-x="51"
     inkscape:window-y="27"
     inkscape:window-maximized="1">
    <inkscape:grid
       type="xygrid"
       id="grid10"
       empspacing="4" />
    <sodipodi:guide
       position="384.00001,64"
       orientation="0,1"
       id="guide23"
       inkscape:label="baseline"
       inkscape:locked="true"
       inkscape:color="rgb(0,0,255)" />
  </sodipodi:namedview>
  <metadata
     id="metadata5">
    <rdf:RDF>
      <cc:Work
         rdf:about="">
        <dc:format>image/svg+xml</dc:format>
        <dc:type
           rdf:resource="http://purl.org/dc/dcmitype/StillImage" />
        <dc:title>Google Scholar</dc:title>
        <cc:license
           rdf:resource="http://scripts.sil.org/OFL" />
        <dc:subject>
          <rdf:Bag>
            <rdf:li>Google Scholar</rdf:li>
          </rdf:Bag>
        </dc:subject>
      </cc:Work>
      <cc:License
         rdf:about="http://scripts.sil.org/OFL">
        <cc:permits
           rdf:resource="http://scripts.sil.org/pub/OFL/Reproduction" />
        <cc:permits
           rdf:resource="http://scripts.sil.org/pub/OFL/Distribution" />
        <cc:permits
           rdf:resource="http://scripts.sil.org/pub/OFL/Embedding" />
        <cc:permits
           rdf:resource="http://scripts.sil.org/pub/OFL/DerivativeWorks" />
        <cc:requires
           rdf:resource="http://scripts.sil.org/pub/OFL/Notice" />
        <cc:requires
           rdf:resource="http://scripts.sil.org/pub/OFL/Attribution" />
        <cc:requires
           rdf:resource="http://scripts.sil.org/pub/OFL/ShareAlike" />
        <cc:requires
           rdf:resource="http://scripts.sil.org/pub/OFL/DerivativeRenaming" />
        <cc:requires
           rdf:resource="http://scripts.sil.org/pub/OFL/BundlingWhenSelling" />
      </cc:License>
    </rdf:RDF>
  </metadata>
  <g
     inkscape:groupmode="layer"
     id="layer6"
     inkscape:label="icon">
    <path
       style="stroke-width:0.0647871"
       d="M 343.75868,106.66243 V 79.430205 L 363.52365,63.999997 H 149.63354 L 20.476345,176.2736 h 85.656075 c -0.15534,2.12494 -0.21914,4.04644 -0.21914,6.22563 0,20.84472 7.2192,38.08662 21.67203,51.86089 14.45284,13.79702 32.25124,20.64784 53.32651,20.64784 4.92319,0 9.75059,-0.36794 14.43842,-1.02419 -2.90722,6.50082 -4.37457,12.52302 -4.37457,18.14228 0,9.87526 4.49924,20.4304 13.46715,31.6418 -39.23377,2.6705 -68.06112,9.73264 -86.43702,21.16322 -10.53108,6.49907 -19.000207,14.70396 -25.390349,24.5311 -6.390569,9.89933 -9.577754,20.51525 -9.577754,31.9616 0,9.64822 2.062375,18.33611 6.21907,26.06233 4.156694,7.7263 9.577757,14.07047 16.312223,18.98408 6.71825,4.96781 14.46899,9.10088 23.219,12.46874 8.73429,3.34378 17.40643,5.71858 26.06106,7.06258 8.62707,1.34222 17.20471,1.9985 25.70579,1.9985 13.46887,0 26.95353,-1.73428 40.54711,-5.18707 13.56165,-3.48461 26.28022,-8.64143 38.17105,-15.4927 11.85935,-6.80488 21.51545,-16.0865 28.9219,-27.7183 7.39024,-11.67998 11.09457,-24.80499 11.09457,-39.33613 0,-11.01584 -2.24964,-21.03852 -6.7502,-30.14073 -4.46864,-9.07202 -9.93785,-16.54102 -16.45271,-22.34403 -6.5008,-5.81263 -12.99987,-11.15539 -19.51512,-15.9679 -6.50083,-4.84488 -12.00021,-9.75058 -16.46884,-14.8129 -4.4848,-5.04657 -6.73444,-10.05419 -6.73444,-14.98395 0,-4.92145 1.73422,-9.67183 5.21588,-14.26559 3.45451,-4.6095 7.67376,-9.04795 12.60967,-13.30571 4.93756,-4.24944 9.87523,-8.96788 14.79665,-14.13302 4.92147,-5.14719 9.14072,-11.82739 12.60971,-20.00822 3.48467,-8.17907 5.20318,-17.44489 5.20318,-27.75679 0,-13.4527 -2.54714,-24.46065 -7.54735,-33.31348 -0.59369,-1.02243 -1.21757,-1.80338 -1.87511,-3.02225 l 56.90745,-46.672136 v 17.118526 c -7.39373,0.92969 -6.62422,5.34582 -6.62422,10.6352 v 128.66719 c 0,5.95832 4.8751,10.83382 10.83386,10.83382 h 3.98869 c 5.95835,0 10.83386,-4.87506 10.83386,-10.83382 V 117.29282 c 0,-5.27669 0.77741,-9.68801 -6.56167,-10.63039 z M 236.39865,329.14114 c 1.14099,0.7503 3.7039,2.78075 7.7184,6.03838 4.0495,3.24319 6.797,5.69582 8.26567,7.41432 1.43851,1.66381 3.5792,4.16501 6.37617,7.54734 2.81268,3.3744 4.7184,6.30394 5.71853,8.73425 1.00016,2.4767 2.01603,5.46089 3.04636,8.94556 0.98567,3.44488 1.48486,6.97595 1.48486,10.56169 0,17.04813 -6.56338,29.68007 -19.65604,37.85915 -13.125,8.18083 -28.76651,12.27368 -46.93767,12.27368 -9.18709,0 -18.2031,-1.09289 -27.06247,-3.1951 -8.84322,-2.11665 -17.31192,-5.3362 -25.39035,-9.60185 -8.07846,-4.25771 -14.57754,-10.20337 -19.50072,-17.79659 -4.93764,-7.64012 -7.40645,-16.41464 -7.40645,-26.24962 0,-10.32022 2.79692,-19.28987 8.42233,-26.90588 5.59343,-7.62564 12.93774,-13.3919 22.03208,-17.3154 9.0624,-3.94582 18.24946,-6.74232 27.56166,-8.39827 9.31221,-1.7023 18.79679,-2.555 28.43842,-2.555 4.46862,0 7.93582,0.25115 10.40465,0.69607 0.45456,0.21918 3.03188,2.07025 7.73456,5.56326 4.70401,3.46237 7.62565,5.59519 8.75047,6.38401 z m -3.35823,-100.5779 c -7.40648,8.85938 -17.73454,13.2882 -30.95363,13.2882 -11.85933,0 -22.29766,-4.76482 -31.26554,-14.31195 -8.99984,-9.52309 -15.42235,-20.32803 -19.34408,-32.43061 -3.93752,-12.10871 -5.90585,-23.98423 -5.90585,-35.648 0,-13.6942 3.59542,-25.35184 10.7809,-34.97598 7.18727,-9.64952 17.49915,-14.48477 30.93786,-14.48477 11.87507,0 22.37423,5.03825 31.43704,15.15677 9.09434,10.08482 15.60961,21.41303 19.5169,33.96799 3.92176,12.5392 5.87345,24.52979 5.87345,35.98399 0,13.44658 -3.70256,24.60984 -11.07663,33.45436 z"
       id="path2" />
  </g>
</svg>
</symbol>
<symbol id="linkedin" fill-rule="evenodd" clip-rule="evenodd" stroke-linejoin="round" stroke-miterlimit="1.414" viewBox="0 0 16 16"><path d="M13.632 13.635h-2.37V9.922c0-.886-.018-2.025-1.234-2.025-1.235 0-1.424.964-1.424 1.96v3.778h-2.37V6H8.51v1.04h.03c.318-.6 1.092-1.233 2.247-1.233 2.4 0 2.845 1.58 2.845 3.637v4.188zM3.558 4.955c-.762 0-1.376-.617-1.376-1.377 0-.758.614-1.375 1.376-1.375.76 0 1.376.617 1.376 1.375 0 .76-.617 1.377-1.376 1.377zm1.188 8.68H2.37V6h2.376v7.635zM14.816 0H1.18C.528 0 0 .516 0 1.153v13.694C0 15.484.528 16 1.18 16h13.635c.652 0 1.185-.516 1.185-1.153V1.153C16 .516 15.467 0 14.815 0z"/>
</symbol>
<symbol id="x" fill-rule="evenodd" clip-rule="evenodd" stroke-linejoin="round" stroke-miterlimit="1.414" viewBox="0 0 16 16"><path
d="M 9.5237333,6.7756869 15.481067,0 h -1.4112 L 8.8949333,5.8820316 4.7648,0 H 0 L 6.2469333,8.8955204 0,16 H 1.4112 L 6.8725333,9.7870441 11.2352,16 H 16 M 1.9205333,1.0412656 h 2.168 L 14.0688,15.009892 h -2.168533"
style="stroke-width:0.0533111" />
</symbol>
<symbol id="rss" fill-rule="evenodd" clip-rule="evenodd" stroke-linejoin="round" stroke-miterlimit="1.414" viewBox="0 0 16 16"><path d="M12.8 16C12.8 8.978 7.022 3.2 0 3.2V0c8.777 0 16 7.223 16 16h-3.2zM2.194 11.61c1.21 0 2.195.985 2.195 2.196 0 1.21-.99 2.194-2.2 2.194C.98 16 0 15.017 0 13.806c0-1.21.983-2.195 2.194-2.195zM10.606 16h-3.11c0-4.113-3.383-7.497-7.496-7.497v-3.11c5.818 0 10.606 4.79 10.606 10.607z"/>
</symbol>
</svg>
